<?xml version="1.0" standalone="no"?>
<!DOCTYPE svg PUBLIC "-//W3C//DTD SVG 20010904//EN"
 "http://www.w3.org/TR/2001/REC-SVG-20010904/DTD/svg10.dtd">
<svg version="1.0" xmlns="http://www.w3.org/2000/svg"
 width="485.000000pt" height="514.000000pt" viewBox="0 0 485.000000 514.000000"
 preserveAspectRatio="xMidYMid meet">

<g transform="translate(0.000000,514.000000) scale(0.100000,-0.100000)"
fill="#060e5d" stroke="none">
<path d="M2094 4675 c-38 -7 -86 -20 -105 -30 -53 -27 -231 -139 -481 -302
-125 -81 -281 -182 -345 -223 -65 -41 -190 -121 -278 -179 l-160 -104 25 -15
c14 -9 44 -35 68 -59 37 -38 42 -49 42 -90 0 -65 -37 -125 -93 -152 -70 -34
-130 -26 -191 26 l-31 26 -3 -31 c-3 -32 -25 -58 -40 -48 -5 3 -12 38 -15 79
-4 40 -13 90 -22 110 -17 41 -20 107 -5 107 22 0 94 -78 115 -125 27 -61 52
-84 96 -91 63 -9 119 44 119 114 0 32 -72 103 -184 181 -113 78 -172 78 -223
2 -25 -37 -31 -121 -13 -196 5 -22 7 -47 5 -55 -3 -8 -32 -31 -66 -50 -76 -43
-133 -104 -167 -178 -23 -49 -27 -70 -27 -152 0 -91 2 -100 38 -173 61 -123
125 -179 587 -510 228 -164 496 -357 595 -429 273 -199 466 -333 510 -355 64
-33 143 -47 250 -47 149 1 203 23 480 199 94 59 229 145 300 190 72 45 171
109 220 142 91 61 460 295 750 476 224 140 231 145 282 201 90 100 126 220
103 346 -14 79 -39 129 -93 187 -44 48 -116 101 -499 370 -136 95 -328 231
-425 301 -368 264 -629 439 -745 498 -107 55 -223 67 -374 39z m124 -191 c47
-33 12 -104 -52 -104 -39 0 -86 33 -86 60 0 50 89 79 138 44z m432 -51 c42
-28 346 -245 500 -357 80 -58 222 -158 315 -222 148 -103 302 -212 532 -380
81 -58 121 -117 135 -195 13 -78 -1 -149 -43 -212 -31 -47 -62 -70 -294 -218
-209 -133 -493 -316 -1073 -691 -194 -125 -379 -241 -410 -257 -96 -49 -164
-64 -263 -59 -111 5 -149 24 -354 174 -82 60 -185 134 -228 164 -43 30 -124
89 -180 131 -56 41 -158 115 -227 164 -69 48 -162 116 -207 149 -45 34 -123
90 -173 126 -153 108 -285 207 -304 229 -10 11 -18 33 -18 48 0 45 -1 45 587
403 61 37 162 100 225 140 125 80 269 169 425 265 97 59 229 141 594 371 95
60 221 139 280 176 112 70 141 78 181 51z m-687 -54 c28 -15 37 -28 37 -56 0
-48 -62 -70 -108 -37 -30 21 -28 58 4 83 31 24 37 25 67 10z m-149 -115 c24
-23 20 -70 -6 -88 -49 -34 -118 -6 -118 48 0 48 88 76 124 40z"/>
<path d="M2460 4158 c-25 -13 -55 -39 -68 -58 -20 -29 -23 -44 -19 -91 l5 -56
-57 -33 c-55 -33 -92 -56 -116 -74 -8 -6 -23 0 -44 15 -27 20 -44 24 -104 24
-86 0 -135 -21 -175 -73 -23 -30 -27 -45 -27 -101 l0 -66 -65 -42 c-36 -23
-78 -51 -93 -63 -27 -22 -28 -22 -65 -4 -49 25 -173 25 -218 1 -39 -20 -92
-80 -100 -112 -3 -14 -1 -46 5 -72 7 -25 8 -49 4 -52 -5 -3 -48 -32 -97 -64
l-88 -58 -37 18 c-27 13 -59 18 -126 18 -77 0 -98 -4 -139 -25 -102 -53 -140
-147 -98 -242 56 -127 264 -169 391 -79 l30 21 68 -46 c37 -26 72 -51 77 -55
5 -4 2 -25 -8 -49 -9 -22 -16 -55 -16 -73 1 -75 64 -153 149 -183 58 -21 168
-17 217 7 l42 20 96 -62 c91 -60 94 -63 80 -83 -92 -131 45 -308 235 -305 57
1 97 15 153 55 80 56 103 164 53 239 -15 20 -25 38 -23 39 2 1 42 28 90 59
l88 58 32 -17 c42 -22 164 -30 211 -15 96 32 166 123 152 200 -3 20 -17 53
-30 73 l-24 37 80 46 80 46 47 -15 c66 -23 138 -20 197 8 42 19 54 21 70 11
11 -6 50 -31 87 -54 57 -36 70 -41 88 -31 28 15 16 29 -58 71 -98 55 -102 60
-86 98 18 43 18 93 0 136 l-15 34 65 41 64 40 43 -22 c33 -18 59 -23 122 -23
73 0 84 3 124 30 24 17 53 42 65 58 28 38 28 118 -1 176 -18 35 -19 47 -10 63
17 27 -8 41 -43 23 -21 -11 -34 -11 -80 1 -64 17 -119 11 -171 -18 l-37 -20
-89 63 -89 64 12 30 c19 44 17 75 -8 125 -32 62 -88 90 -182 90 -54 0 -79 -5
-105 -21 -33 -20 -34 -20 -55 -1 -11 10 -51 38 -88 62 l-66 43 5 53 c8 71 -29
137 -90 165 -61 27 -160 26 -217 -3z m196 -82 c42 -42 44 -77 6 -116 -55 -55
-141 -47 -192 17 -49 63 4 133 102 133 43 0 54 -4 84 -34z m-195 -191 c24 -14
54 -25 67 -25 22 0 22 -1 22 -155 0 -142 -1 -155 -18 -155 -10 0 -35 -9 -56
-19 l-37 -20 -97 68 -97 68 -1 59 c0 32 -4 68 -8 79 -6 16 -1 23 21 32 15 7
57 30 92 53 36 22 66 40 67 40 1 0 22 -11 45 -25z m428 -97 c7 -2 7 -15 -1
-41 -9 -29 -9 -49 -1 -80 7 -23 9 -43 5 -45 -4 -1 -45 -26 -91 -56 -79 -50
-85 -53 -110 -40 -14 8 -38 19 -53 24 l-28 10 0 150 c0 136 2 150 18 150 9 0
35 11 56 24 l39 23 78 -57 c43 -32 83 -60 88 -62z m-795 19 c38 -28 -30 -90
-74 -67 -12 6 -25 9 -28 5 -9 -9 26 -34 57 -42 24 -6 29 -2 65 52 13 20 14 20
35 1 30 -27 26 -53 -13 -92 -38 -38 -82 -44 -140 -20 -71 30 -85 89 -32 142
27 27 42 34 73 34 22 0 47 -6 57 -13z m1068 -45 c98 -89 -52 -203 -157 -120
-79 62 -35 147 77 148 39 0 54 -5 80 -28z m-864 -222 l97 -69 0 -86 -1 -86
-59 -37 -59 -37 -48 23 c-27 13 -68 26 -91 30 l-42 8 -3 139 -2 140 47 22 c27
11 51 22 56 22 4 1 51 -30 105 -69z m-315 38 l47 -13 0 -140 0 -140 -50 -12
c-28 -7 -64 -21 -79 -33 -16 -11 -33 -20 -38 -20 -4 0 -37 19 -73 43 -48 32
-64 48 -62 62 8 54 4 106 -11 128 -19 30 -23 26 93 96 54 33 92 50 105 47 11
-3 41 -11 68 -18z m1008 -14 c42 -21 146 -21 187 0 l32 17 88 -67 c48 -37 88
-68 90 -69 1 -1 -5 -19 -14 -40 -12 -30 -13 -47 -5 -79 12 -48 5 -59 -71 -107
l-50 -32 -64 23 c-75 26 -154 24 -216 -5 l-37 -18 -63 42 c-106 70 -111 75
-100 114 6 20 6 53 2 78 -5 26 -5 48 1 54 12 12 171 104 182 104 4 1 22 -6 38
-15z m-1395 -95 c86 -53 85 -123 -3 -168 -30 -15 -87 -14 -127 3 -39 16 -76
60 -76 90 0 77 128 124 206 75z m1070 -23 c41 -41 43 -64 8 -105 -45 -54 -149
-51 -193 6 -29 36 -26 60 13 99 30 30 40 34 86 34 46 0 56 -4 86 -34z m964 12
c0 -10 -58 -108 -65 -108 -1 0 -19 7 -38 15 -49 20 -59 19 -55 -7 3 -24 111
-94 128 -83 6 4 21 27 34 53 13 26 34 56 46 67 18 16 23 17 30 5 25 -40 -1
-106 -53 -139 -44 -27 -102 -27 -151 2 -100 56 -67 168 57 197 48 12 67 11 67
-2z m-1877 -238 c37 -25 66 -47 64 -50 -1 -3 -11 -29 -22 -57 l-20 -53 -92 0
c-51 0 -95 -4 -98 -10 -10 -15 12 -20 109 -23 l88 -2 19 -50 19 -50 -27 -23
c-16 -12 -47 -34 -71 -48 -43 -25 -44 -25 -85 -9 -61 25 -179 23 -236 -3 l-44
-20 -71 51 c-39 28 -74 53 -79 57 -4 4 -2 29 4 56 l11 49 126 -3 c88 -3 132
-8 146 -18 27 -19 50 -18 69 4 15 16 15 20 1 40 -16 23 -53 29 -71 11 -6 -6
-65 -11 -141 -12 l-130 -2 -20 47 -20 47 67 40 c36 22 83 47 103 57 35 16 38
16 75 -2 54 -26 155 -25 208 2 22 12 42 21 45 20 3 0 35 -21 73 -46z m1058
-20 c79 -52 85 -58 73 -75 -25 -34 -26 -78 -5 -135 12 -30 21 -58 21 -61 0 -4
-34 -30 -75 -58 l-75 -51 -33 20 c-41 25 -167 28 -225 4 l-39 -15 -67 42 c-36
22 -66 47 -66 55 0 7 10 34 22 59 l22 45 83 0 c67 0 83 3 83 15 0 12 -16 15
-82 15 l-83 0 -16 48 c-9 26 -19 54 -22 62 -5 11 11 26 55 54 l63 38 53 -17
c29 -9 65 -17 80 -17 35 -1 109 20 117 32 7 12 2 15 116 -60z m-625 -11 c37
-19 54 -36 73 -73 23 -44 24 -51 12 -94 -7 -26 -22 -58 -34 -71 -33 -35 -102
-63 -161 -63 -133 -1 -246 116 -206 213 16 37 83 96 125 109 51 16 138 6 191
-21z m-1112 -57 c33 -20 66 -75 66 -113 0 -37 -39 -91 -80 -111 -43 -22 -128
-23 -175 -4 -90 38 -114 125 -52 192 56 61 169 78 241 36z m2093 7 l28 -12
-27 -7 c-15 -5 -39 -22 -53 -38 l-25 -30 -45 17 c-33 11 -47 13 -56 4 -19 -19
6 -46 67 -72 68 -30 78 -25 119 52 17 31 33 57 36 57 4 0 13 -14 22 -31 29
-62 -16 -135 -93 -149 -77 -14 -146 15 -183 78 -17 30 -17 33 -1 67 26 56 58
75 125 75 32 0 70 -5 86 -11z m-838 -300 c33 -22 63 -44 66 -49 3 -5 -4 -24
-15 -42 -26 -42 -26 -107 0 -158 11 -22 20 -42 20 -45 0 -3 -38 -30 -85 -61
l-86 -55 -52 17 c-29 10 -58 19 -66 21 -10 2 -12 18 -7 71 8 75 8 65 0 190
l-6 92 25 0 c32 0 86 19 117 41 14 10 26 19 26 19 1 0 29 -18 63 -41z m-422
20 c5 -5 37 -18 69 -28 l59 -17 0 -106 c0 -59 2 -109 5 -111 3 -3 4 -35 2 -70
l-4 -66 -39 -6 c-21 -4 -41 -11 -45 -16 -10 -17 -39 -9 -89 27 -28 20 -68 45
-90 56 -22 11 -41 21 -42 22 -2 1 6 20 17 41 26 51 25 111 -1 154 -11 18 -19
37 -17 42 4 13 131 88 149 89 8 0 20 -5 26 -11z m-255 -118 c45 -48 50 -90 15
-142 -62 -92 -228 -84 -287 13 -30 50 -26 83 19 130 32 35 47 43 87 48 81 9
124 -3 166 -49z m1050 20 c50 -32 78 -66 78 -95 0 -62 -113 -145 -182 -132
-41 8 -120 57 -141 89 -30 46 -29 64 2 100 65 74 162 89 243 38z m-532 -386
c36 -19 78 -66 85 -95 7 -32 -21 -78 -71 -116 -32 -25 -47 -29 -100 -29 -48 0
-69 5 -91 21 -42 31 -73 83 -73 120 0 92 150 151 250 99z"/>
<path d="M1570 3425 c-27 -28 -52 -32 -70 -10 -17 21 -40 19 -40 -4 0 -23 57
-73 78 -69 24 5 78 86 66 98 -7 7 -18 2 -34 -15z"/>
<path d="M2558 3055 c-22 -49 45 -78 76 -33 14 20 14 24 -1 40 -24 26 -61 23
-75 -7z"/>
<path d="M2670 3040 c20 -13 180 -13 180 0 0 6 -39 10 -97 10 -67 0 -93 -3
-83 -10z"/>
<path d="M2118 3099 c-54 -41 -59 -42 -132 -23 -23 5 -26 3 -26 -19 0 -20 9
-28 56 -46 l56 -21 64 57 c35 31 64 62 64 69 0 27 -32 21 -82 -17z"/>
<path d="M983 3060 c-12 -21 -22 -28 -33 -24 -8 4 -27 9 -42 11 -26 5 -27 4
-18 -28 13 -44 21 -50 74 -56 l46 -6 20 44 c28 62 26 89 -4 89 -17 0 -31 -10
-43 -30z"/>
<path d="M1558 2699 c-10 -5 -33 -10 -53 -11 -19 -1 -35 -5 -35 -9 0 -13 52
-49 71 -49 21 0 42 33 37 60 -2 15 -7 17 -20 9z"/>
<path d="M4261 2159 c-17 -10 -31 -23 -31 -29 0 -6 29 -58 65 -115 36 -58 65
-110 65 -115 0 -13 -35 -30 -62 -30 -36 0 -116 44 -181 100 l-58 50 -35 -26
c-18 -15 -31 -31 -28 -36 4 -5 43 -37 88 -70 153 -114 238 -136 309 -77 l37
30 9 -23 c22 -59 22 -84 1 -111 -12 -15 -28 -27 -35 -27 -8 0 -30 -8 -50 -17
-47 -22 -57 -59 -24 -86 50 -40 170 1 212 72 38 65 10 150 -99 297 -32 43 -80
114 -105 156 l-46 76 -32 -19z"/>
<path d="M3825 2073 c-55 -14 -115 -95 -115 -155 0 -29 6 -42 33 -62 28 -23
31 -28 19 -46 -17 -28 9 -70 39 -63 21 6 57 -27 159 -146 l56 -64 37 14 c20 7
37 18 37 25 0 12 -56 80 -134 162 l-51 54 33 28 c23 19 34 37 34 57 2 60 -19
67 -78 27 -41 -28 -55 -26 -81 13 -13 19 -12 23 9 43 13 12 38 29 56 36 24 11
32 21 32 39 0 36 -33 51 -85 38z"/>
<path d="M3516 1874 c-21 -21 -20 -36 5 -68 23 -30 45 -33 77 -10 28 20 30 69
3 84 -29 15 -67 12 -85 -6z"/>
<path d="M3623 1743 c-18 -9 -33 -19 -33 -22 0 -4 46 -56 103 -116 56 -61 114
-126 129 -145 l27 -34 35 17 c20 9 36 24 36 32 0 16 -246 286 -258 284 -4 0
-22 -8 -39 -16z"/>
<path d="M3428 1626 c-57 -21 -89 -45 -101 -77 -7 -16 -16 -28 -22 -26 -13 5
-65 -31 -65 -45 0 -6 58 -69 130 -140 l130 -129 30 16 c38 20 37 20 -68 135
-86 93 -96 116 -67 157 17 24 71 39 105 28 11 -4 62 -49 113 -101 92 -95 92
-95 125 -83 17 6 32 18 32 26 0 19 -172 197 -215 223 -43 26 -85 31 -127 16z"/>
<path d="M3065 1391 c-84 -40 -135 -80 -135 -105 0 -8 4 -26 10 -41 9 -23 12
-24 32 -14 12 6 33 25 47 42 29 35 82 60 108 51 30 -11 143 -127 143 -147 0
-31 -54 -77 -90 -77 -36 0 -80 38 -80 70 0 24 -17 26 -48 4 -44 -30 -22 -97
42 -128 39 -18 127 -21 159 -5 35 18 67 51 67 69 0 13 6 16 23 13 14 -3 29 2
36 11 8 9 20 16 27 16 8 0 14 4 14 10 0 9 -255 263 -268 267 -4 1 -43 -15 -87
-36z"/>
<path d="M2688 1324 c-16 -8 -28 -19 -28 -25 0 -9 116 -137 302 -334 l58 -60
37 21 c20 12 38 25 40 30 1 5 -17 23 -41 39 -24 17 -63 53 -87 82 -81 95 -233
258 -244 260 -5 1 -22 -4 -37 -13z"/>
<path d="M2457 1175 c-27 -14 -77 -49 -112 -77 l-63 -52 138 -143 c76 -79 162
-175 192 -213 29 -39 60 -70 68 -70 8 0 29 11 45 25 l30 24 -45 40 c-40 35
-43 40 -25 46 93 29 136 91 137 198 1 50 -4 72 -20 99 -30 49 -103 114 -148
133 -56 23 -140 19 -197 -10z m147 -56 c51 -14 123 -82 137 -129 18 -58 5
-103 -41 -144 -22 -20 -48 -36 -59 -36 -10 0 -44 28 -76 65 -31 36 -76 79
-100 95 -23 16 -46 37 -49 47 -10 24 22 63 74 90 49 26 60 27 114 12z"/>
<path d="M1711 1034 c-289 -78 -408 -396 -239 -641 85 -124 190 -192 336 -219
226 -41 421 44 509 224 33 66 38 87 42 159 8 193 -92 353 -279 448 -88 45
-261 58 -369 29z m231 -85 c106 -23 213 -97 264 -185 37 -63 57 -173 44 -242
-13 -71 -63 -156 -114 -193 -86 -63 -221 -88 -312 -59 -101 33 -213 111 -263
184 -63 91 -76 212 -33 308 22 52 99 131 153 159 75 38 167 48 261 28z"/>
<path d="M1768 844 c-35 -19 -52 -48 -35 -62 18 -15 97 -34 113 -28 9 4 14 22
14 56 0 50 0 50 -32 50 -18 -1 -45 -7 -60 -16z"/>
<path d="M1971 788 c-59 -84 -90 -114 -100 -99 -7 11 -10 9 -16 -8 -3 -12 -18
-33 -31 -46 -20 -20 -23 -29 -14 -44 25 -48 97 -67 125 -33 8 9 34 46 58 82
24 36 47 65 53 65 5 0 13 -26 18 -59 9 -53 7 -63 -14 -103 -28 -53 -59 -79
-112 -94 -67 -18 -117 -3 -169 50 -52 52 -69 96 -69 182 0 66 -17 90 -45 63
-63 -63 -41 -210 43 -297 107 -109 321 -101 401 16 68 102 67 202 -3 266 -14
14 -26 33 -26 43 0 22 -34 58 -55 58 -8 0 -28 -19 -44 -42z"/>
</g>
</svg>
